# xmcd CD database file
#
# Track frame offsets:
#	150
#	14551
#	38285
#	56749
#	93837
#	115279
#	132037
#	187690
#	206287
#	251227
#	271362
#	286870
#
# Disc length: 4165 seconds
#
# Revision: 3
# Processed by: cddbd v1.4PL0 Copyright (c) Steve Scherf et al.
# Submitted via: CDex 1.51
#
DISCID=9c10430c
DTITLE=Brazil - Latin Jazz
DYEAR=2003
DGENRE=Jazz
TTITLE0=Brazilian Soccer Theme
TTITLE1=Al Jarreau - Mas Que Nada
TTITLE2=Diana Krall and Rosemary Clooney - Boy From Ipanema
TTITLE3=Diane Reeves - Besame Mucho
TTITLE4=Jane Monheit -  Water Of March
TTITLE5=Karrin Allyson - One Note Samba
TTITLE6=Keiko Lee - Afro Blue(Live)
TTITLE7=Manhattan Transfer -  The Zoo Blues(Asa)
TTITLE8=McCoy Tyner - Blue Bossa
TTITLE9=New York Voices - Desafinado
TTITLE10=Sarah Vaughan - Quiet Nights Of Quiet Stars (Corcovado)
TTITLE11=Vince Guaraldi Trio - Samba De Orpheus
EXTD=YEAR: 2003
EXTT0=
EXTT1=
EXTT2=
EXTT3=
EXTT4=
EXTT5=
EXTT6=
EXTT7=
EXTT8=
EXTT9=
EXTT10=
EXTT11=
PLAYORDER=
